HIERARCHY
ROOT SpineBase
{
  OFFSET 0.000000 0.000000 0.000000
  CHANNELS 6 Xposition Yposition Zposition Zrotation Xrotation Yrotation
  JOINT SpineMid
  {
    OFFSET 0.000000 31.954692 0.000000
    CHANNELS 3 Zrotation Xrotation Yrotation
    JOINT SpineShoulder
    {
      OFFSET 0.111323 23.681228 -0.843925
      CHANNELS 3 Zrotation Xrotation Yrotation
      JOINT Neck
      {
        OFFSET 0.088010 7.825342 -0.674651
        CHANNELS 3 Zrotation Xrotation Yrotation
        JOINT Head
        {
          OFFSET -5.184731 14.233521 0.348576
          CHANNELS 3 Zrotation Xrotation Yrotation
          End Site
          {
            OFFSET 0 0 0
          }
        }
      }
      JOINT ShoulderLeft
      {
        OFFSET -16.375480 -6.670885 7.700839
        CHANNELS 3 Zrotation Xrotation Yrotation
        JOINT ElbowLeft
        {
          OFFSET -0.945886 -28.525527 3.137506
          CHANNELS 3 Zrotation Xrotation Yrotation
          JOINT WristLeft
          {
            OFFSET -0.540953 -22.609881 -3.627948
            CHANNELS 3 Zrotation Xrotation Yrotation
            JOINT HandLeft
            {
              OFFSET 0.547792 -5.619474 -1.739088
              CHANNELS 3 Zrotation Xrotation Yrotation
              JOINT HandTipLeft
              {
                OFFSET 0.993271 -7.187054 -2.277079
                CHANNELS 3 Zrotation Xrotation Yrotation
                End Site
                {
                  OFFSET 0 0 0
                }
              }
              JOINT ThumbLeft
              {
                OFFSET -2.526243 -2.299217 -2.677483
                CHANNELS 3 Zrotation Xrotation Yrotation
                End Site
                {
                  OFFSET 0 0 0
                }
              }
            }
          }
        }
      }
      JOINT ShoulderRight
      {
        OFFSET 14.386957 -4.015904 -9.406794
        CHANNELS 3 Zrotation Xrotation Yrotation
        JOINT ElbowRight
        {
          OFFSET 6.721206 -24.778668 -3.183698
          CHANNELS 3 Zrotation Xrotation Yrotation
          JOINT WristRight
          {
            OFFSET -1.086320 -25.529149 -6.130404
            CHANNELS 3 Zrotation Xrotation Yrotation
            JOINT HandRight
            {
              OFFSET -1.696671 -6.314651 -0.381348
              CHANNELS 3 Zrotation Xrotation Yrotation
              JOINT HandTipRight
              {
                OFFSET -0.405511 -7.557157 -0.295881
                CHANNELS 3 Zrotation Xrotation Yrotation
                End Site
                {
                  OFFSET 0 0 0
                }
              }
              JOINT ThumbRight
              {
                OFFSET 2.461284 -0.984215 -2.313458
                CHANNELS 3 Zrotation Xrotation Yrotation
                End Site
                {
                  OFFSET 0 0 0
                }
              }
            }
          }
        }
      }
    }
  }
  JOINT HipLeft
  {
    OFFSET -6.530152 -0.052884 -0.412952
    CHANNELS 3 Zrotation Xrotation Yrotation
    JOINT KneeLeft
    {
      OFFSET 3.800595 -35.014364 4.202917
      CHANNELS 3 Zrotation Xrotation Yrotation
      JOINT AnkleLeft
      {
        OFFSET 9.984065 -37.520028 7.534364
        CHANNELS 3 Zrotation Xrotation Yrotation
        JOINT FootLeft
        {
          OFFSET 2.492862 -7.771107 -7.755122
          CHANNELS 3 Zrotation Xrotation Yrotation
          End Site
          {
            OFFSET 0 0 0
          }
        }
      }
    }
  }
  JOINT HipRight
  {
    OFFSET 7.038960 1.700934 -6.892317
    CHANNELS 3 Zrotation Xrotation Yrotation
    JOINT KneeRight
    {
      OFFSET 8.898765 -30.184098 -3.353471
      CHANNELS 3 Zrotation Xrotation Yrotation
      JOINT AnkleRight
      {
        OFFSET 2.542642 -41.313056 14.157836
        CHANNELS 3 Zrotation Xrotation Yrotation
        JOINT FootRight
        {
          OFFSET -4.385627 -7.943866 -2.205245
          CHANNELS 3 Zrotation Xrotation Yrotation
          End Site
          {
            OFFSET 0 0 0
          }
        }
      }
    }
  }
}
MOTION
Frames: 12
Frame Time: 0.033333
-21.768450 82.354245 347.992672 -0.315909 0.364141 27.005628 0.790247 0.165436 -26.995303 0.747286 0.568531 0.068673 1.012892 0.711633 0.652599 0.000000 0.000000 0.000000 -4.797784 -2.508758 -0.591120 3.873817 1.967170 0.288410 -3.023429 -7.362628 0.093776 1.031509 1.874353 -0.342623 0.000000 0.000000 0.000000 0.000000 0.000000 0.000000 -3.984754 2.690850 1.442444 -0.013217 -8.571550 -0.865950 3.564743 -2.552065 0.858540 6.541491 3.599875 -2.570014 0.000000 0.000000 0.000000 0.000000 0.000000 0.000000 0.116120 -0.467880 -27.004150 -1.620380 -0.012920 -0.330264 0.980331 0.588385 1.148720 0.000000 0.000000 0.000000 -7.215316 -5.368173 -29.210150 3.685820 11.819528 1.778921 -0.654056 9.093103 -6.861017 0.000000 0.000000 0.000000
-22.307732 82.262757 348.191577 -0.656605 -0.045197 26.749993 0.606681 -0.255174 -26.748901 0.808058 0.971564 0.051930 1.376337 1.295649 0.695606 0.000000 0.000000 0.000000 -4.587586 -2.270333 -0.543621 3.766526 1.330435 0.327335 -3.112135 -4.496561 0.408644 2.480783 0.619425 -0.961407 0.000000 0.000000 0.000000 0.000000 0.000000 0.000000 -2.563399 -0.063767 0.390988 1.573698 -5.926770 -0.220888 2.835573 -7.735317 3.121728 6.524139 6.945157 -4.618400 0.000000 0.000000 0.000000 0.000000 0.000000 0.000000 0.606681 -0.255174 -26.748901 -1.567991 0.080786 -0.293393 0.225394 0.306604 1.760957 0.000000 0.000000 0.000000 -5.870258 -5.319239 -28.903740 3.140318 11.595450 1.896027 -1.034776 9.702568 -7.249035 0.000000 0.000000 0.000000
-22.534655 82.150468 348.199077 -0.618556 -0.165469 26.472588 0.627459 -0.127618 -26.472782 0.713689 0.619315 0.050735 1.238124 1.804853 0.751753 0.000000 0.000000 0.000000 -4.282074 -2.029335 -0.485309 3.556642 1.436925 0.299775 -2.153778 -6.027457 -0.035535 1.524987 1.885516 -0.527259 0.000000 0.000000 0.000000 0.000000 0.000000 0.000000 -0.826121 -2.582192 -0.581445 0.922558 -2.171769 0.505493 0.978647 -10.357977 3.995736 7.026856 10.586959 -5.592276 0.000000 0.000000 0.000000 0.000000 0.000000 0.000000 1.508734 -0.178734 -26.335378 -2.149091 -0.137749 -0.358068 -0.857087 -0.634972 2.276532 0.000000 0.000000 0.000000 -5.604165 -5.843973 -28.826735 2.837400 12.692414 2.197836 -2.350143 7.348007 -6.168061 0.000000 0.000000 0.000000
-22.478698 82.063756 348.041645 -0.307252 -0.030841 26.158444 0.289379 -0.107771 -26.158255 0.755435 0.419993 0.057660 0.522608 2.254524 0.855435 0.000000 0.000000 0.000000 -3.889731 -1.815020 -0.421669 3.124373 1.416130 0.258735 -0.943976 -6.158167 -0.365902 0.567090 4.433224 0.169127 0.000000 0.000000 0.000000 0.000000 0.000000 0.000000 1.045722 -4.677384 -1.370684 -1.194277 2.908362 1.306199 -5.873629 -8.450298 2.715958 9.773013 10.066952 -4.287726 0.000000 0.000000 0.000000 0.000000 0.000000 0.000000 0.289379 -0.107771 -26.158255 -1.131088 0.276328 -0.151352 -1.131885 -1.010749 2.183643 0.000000 0.000000 0.000000 -6.159932 -5.819193 -28.518108 3.580540 12.874801 2.260603 -2.632337 4.551720 -5.051315 0.000000 0.000000 0.000000
-22.472693 81.963966 347.826734 -0.145811 0.206191 25.891562 0.041138 -0.249165 -25.891211 0.776339 0.413744 0.059499 -0.203332 2.414824 0.938936 0.000000 0.000000 0.000000 -3.310702 -1.651492 -0.347611 2.526894 1.252326 0.209232 0.193458 -5.967071 -0.642237 -1.230656 3.062883 0.659499 0.000000 0.000000 0.000000 0.000000 0.000000 0.000000 2.312849 -5.908437 -1.780964 -2.629490 6.069159 1.789037 -9.565716 -3.481411 1.131968 8.912637 5.764937 -1.635378 0.000000 0.000000 0.000000 0.000000 0.000000 0.000000 0.041138 -0.249165 -25.891211 -1.007025 0.267882 -0.128949 -1.061549 -0.782413 2.036089 0.000000 0.000000 0.000000 -6.773671 -5.646506 -28.172662 4.681336 12.702237 2.218025 -2.117147 0.917722 -3.636588 0.000000 0.000000 0.000000
-22.388595 81.873958 347.543546 0.033116 0.563695 25.678924 -0.274117 -0.493671 -25.680268 0.800654 0.556943 0.058902 -0.525130 2.223325 0.933868 0.000000 0.000000 0.000000 -2.609302 -1.494861 -0.266295 1.803818 0.946444 0.152351 0.382168 -5.142914 -0.611070 -1.074548 2.351996 0.515253 0.000000 0.000000 0.000000 0.000000 0.000000 0.000000 3.099910 -6.128573 -1.846908 -3.548945 7.898177 1.882869 -8.245669 2.436591 -0.603336 4.969351 1.583048 0.848335 0.000000 0.000000 0.000000 0.000000 0.000000 0.000000 -0.006906 -1.477678 -25.679276 -0.667261 0.770999 0.008095 -2.093060 -0.896953 1.809455 0.000000 0.000000 0.000000 -7.504664 -5.573785 -27.900198 5.938337 12.539189 2.196896 -2.425428 -5.219595 -0.646422 0.000000 0.000000 0.000000
-22.314743 81.861338 347.328915 0.148817 0.873813 25.577802 -0.511521 -0.723916 -25.582169 0.811402 0.764710 0.055976 -0.590392 1.787647 0.854345 0.000000 0.000000 0.000000 -2.048824 -1.401541 -0.204759 1.234284 0.641789 0.107674 0.307569 -3.366586 -0.418110 -0.451869 2.281691 0.333313 0.000000 0.000000 0.000000 0.000000 0.000000 0.000000 3.438535 -5.514659 -1.660865 -4.274688 8.501117 1.763931 -2.324145 6.206422 -2.310886 -1.621348 -2.953245 2.085456 0.000000 0.000000 0.000000 0.000000 0.000000 0.000000 -0.422590 -1.938391 -25.622197 -0.605435 1.056572 0.047677 -2.894124 -1.364132 2.465608 0.000000 0.000000 0.000000 -7.998208 -5.406235 -27.697788 6.621220 11.885710 2.078241 -0.478250 -11.687001 2.833223 0.000000 0.000000 0.000000
-22.218438 81.891853 347.140787 0.236666 1.129084 25.416407 -0.698426 -0.918192 -25.424336 0.804052 0.968203 0.051680 -0.511989 1.327810 0.761794 0.000000 0.000000 0.000000 -1.808711 -1.577285 -0.177491 1.001692 0.612767 0.084577 -0.772869 -1.759442 0.056097 1.353983 0.923718 -0.392955 0.000000 0.000000 0.000000 0.000000 0.000000 0.000000 2.948161 -5.072432 -1.456756 -4.262273 9.095534 1.611341 0.871453 6.583652 -3.013952 -4.757531 -3.538087 2.261715 0.000000 0.000000 0.000000 0.000000 0.000000 0.000000 -0.773841 -2.320044 -25.503194 -0.200014 2.312148 0.410021 -3.423974 -2.166755 2.314506 0.000000 0.000000 0.000000 -8.267749 -5.151571 -27.393114 6.694866 10.850573 1.859338 -1.225404 -7.015865 0.806272 0.000000 0.000000 0.000000
-22.187564 81.963605 347.090156 0.247657 1.202339 25.414513 -0.739776 -0.979657 -25.423436 0.766076 1.069989 0.046901 -0.416730 1.093044 0.716834 0.000000 0.000000 0.000000 -1.712288 -1.657978 -0.167929 0.943360 0.591254 0.079355 -1.610253 -0.046891 0.493872 1.489166 -2.031297 -0.751242 0.000000 0.000000 0.000000 0.000000 0.000000 0.000000 2.250338 -4.397854 -1.203492 -3.646678 9.132181 1.283649 0.918822 7.096870 -3.346772 -4.112327 -0.838205 2.494102 0.000000 0.000000 0.000000 0.000000 0.000000 0.000000 -0.816438 -2.362135 -25.501697 0.003791 2.448612 0.482250 -4.268687 -2.647486 2.751830 0.000000 0.000000 0.000000 -8.308116 -4.907883 -27.282064 6.819035 10.209534 1.747474 -0.727493 -7.298527 1.122174 0.000000 0.000000 0.000000
-22.149336 81.967964 347.042235 0.282057 1.265932 25.245676 -0.145378 -0.493050 -25.237998 0.361728 0.432817 0.039310 -0.371401 0.861803 0.682485 0.000000 0.000000 0.000000 -1.559273 -1.647213 -0.153742 0.834270 0.459080 0.073247 -2.880844 1.397691 1.061704 3.256915 -4.326128 -1.513596 0.000000 0.000000 0.000000 0.000000 0.000000 0.000000 1.437395 -3.800333 -0.945748 -2.804280 8.267234 0.965970 0.336048 5.081220 -2.732438 -2.883493 0.512662 2.129610 0.000000 0.000000 0.000000 0.000000 0.000000 0.000000 -0.900059 -2.495597 -25.344266 -0.054760 2.598045 0.497552 -4.491237 -2.422228 3.108958 0.000000 0.000000 0.000000 -8.446602 -4.978057 -27.130677 7.003096 10.133283 1.755825 -2.046738 -7.477072 1.492573 0.000000 0.000000 0.000000
-22.127592 81.951250 347.081306 0.290300 1.218008 25.048386 -0.111819 -0.385421 -25.041494 0.314375 0.460080 0.033978 -0.293680 0.635663 0.639714 0.000000 0.000000 0.000000 -1.432879 -1.633811 -0.142370 0.764279 0.354472 0.069985 -3.418485 2.424001 1.361904 3.195635 -5.878644 -1.669889 0.000000 0.000000 0.000000 0.000000 0.000000 0.000000 1.174851 -3.224577 -0.740191 -2.941033 6.813153 0.905736 -0.026014 3.363244 -2.151811 -1.773257 1.945831 1.631296 0.000000 0.000000 0.000000 0.000000 0.000000 0.000000 -0.878693 -2.465324 -25.146934 -0.338885 2.566212 0.440640 -4.229404 -1.847817 3.383326 0.000000 0.000000 0.000000 -8.523343 -5.210729 -27.034459 6.921612 10.501913 1.815176 -0.126076 -12.855831 4.282640 0.000000 0.000000 0.000000
-22.142398 81.933813 347.130644 0.247667 1.160692 24.927393 -0.051044 -0.286845 -24.921311 0.285113 0.470973 0.029553 -0.184613 0.416277 0.591056 0.000000 0.000000 0.000000 -0.608303 -1.349646 -0.044382 -0.000000 0.000000 0.000000 -3.421287 3.122099 1.448726 3.100891 -5.872767 -1.594737 0.000000 0.000000 0.000000 0.000000 0.000000 0.000000 0.912513 -2.992686 -0.626569 -3.584902 5.856055 1.088886 -0.009832 0.702612 -1.485408 -0.098578 2.239989 0.936939 0.000000 0.000000 0.000000 0.000000 0.000000 0.000000 -0.773805 -2.433728 -25.017721 -0.493619 2.592404 0.426263 -4.008456 -2.356916 3.138580 0.000000 0.000000 0.000000 -8.619468 -5.819057 -27.167017 6.534098 11.452547 1.961681 -1.665942 -6.366247 0.698511 0.000000 0.000000 0.000000
